<?xml version="1.0" standalone="no"?>
<!DOCTYPE svg PUBLIC "-//W3C//DTD SVG 1.1//EN" "http://www.w3.org/Graphics/SVG/1.1/DTD/svg11.dtd" >
<svg xmlns="http://www.w3.org/2000/svg" xmlns:xlink="http://www.w3.org/1999/xlink" version="1.1">
<metadata>
Created by FontForge 20160407 at Mon May  9 01:44:49 2016
 By Jimmy Wärting
Copyright \(c\) 2016 by Nicky Laatz. All rights reserved.
</metadata>
<defs>
<font id="BloomingElegantSans" horiz-adv-x="412" >
  <font-face 
    font-family="Blooming Elegant Sans"
    font-weight="400"
    font-stretch="normal"
    units-per-em="1000"
    panose-1="0 0 0 0 0 0 0 0 0 0"
    ascent="750"
    descent="-250"
    x-height="393"
    cap-height="396"
    bbox="-40 -107 640 560"
    underline-thickness="50"
    underline-position="-100"
    stemh="80"
    stemv="80"
    unicode-range="U+000D-FB02"
  />
<missing-glyph horiz-adv-x="112" 
 />
    <glyph glyph-name=".notdef" horiz-adv-x="112" 
 />
    <glyph glyph-name="B" unicode="B" horiz-adv-x="361" 
d="M291 194c20 -22 31 -50 31 -80c0 -58 -42 -107 -96 -114l-177 -1v395l173 -1c55 -3 94 -53 94 -109c0 -32 -13 -61 -34 -80c3 -3 6 -6 9 -10zM109 334v-103l98 -1c27 0 49 26 49 54s-22 50 -49 50h-98zM213 59c28 0 49 25 49 55s-21 57 -49 57h-104v-112h104zM220 -1h-17
h17z" />
    <glyph glyph-name="C" unicode="C" horiz-adv-x="386" 
d="M204 1c-51 0 -98 21 -134 58s-55 86 -55 138c0 53 19 102 55 139s83 58 134 58c27 0 52 -6 77 -17c23 -11 44 -26 62 -46l19 -22l-44 -40l-20 22c-25 28 -58 43 -94 43c-71 0 -129 -61 -129 -137c0 -75 58 -136 129 -136c36 0 69 15 94 43l20 22l44 -40l-19 -22
c-18 -20 -39 -35 -62 -46c-25 -11 -50 -17 -77 -17z" />
    <glyph glyph-name="D" unicode="D" horiz-adv-x="379" 
d="M355 227v-31c-6 -126 -100 -197 -243 -197h-66v401h102c111 -3 197 -67 207 -173zM295 192v4c0 66 -34 145 -167 145l-22 -1v-281h6c103 0 183 49 183 133z" />
    <glyph glyph-name="E" unicode="E" horiz-adv-x="371" 
d="M322 337h-215v-100h191v-60h-191v-118h215v-60h-275v0v60v118v60v100v60h60h215v-60z" />
    <glyph glyph-name="F" unicode="F" horiz-adv-x="323" 
d="M313 337h-201v-100h157v-60h-157v-178h-60v0v60v118v60v100v60h60h201v-60z" />
    <glyph glyph-name="G" unicode="G" horiz-adv-x="403" 
d="M211 1c-96 0 -183 82 -183 196c0 108 83 197 189 197c79 0 151 -48 156 -120l-60 -2c-2 37 -47 62 -96 62c-73 0 -129 -61 -129 -137c0 -73 53 -136 124 -136c45 0 98 38 104 87h-123v60h189v-14c0 -113 -70 -193 -171 -193z" />
    <glyph glyph-name="H" unicode="H" horiz-adv-x="411" 
d="M298 396h60v-398h-60v169h-195v-169h-60v398h60v-169h195v169z" />
    <glyph glyph-name="I" unicode="I" horiz-adv-x="172" 
d="M116 -2h-60v398h60v-398z" />
    <glyph glyph-name="J" unicode="J" horiz-adv-x="325" 
d="M148 -3c-40 1 -80 13 -105 40l-21 23l45 40l20 -21c14 -12 39 -23 63 -23c13 0 26 3 37 11c19 14 21 55 21 87v60c0 33 0 67 -1 99l-2 82h60c1 -44 1 -61 2 -81c1 -32 1 -66 1 -100v-60c0 -45 -3 -103 -45 -135c-26 -20 -57 -21 -75 -22z" />
    <glyph glyph-name="K" unicode="K" horiz-adv-x="421" 
d="M112 0h-60v395h60v-181l181 181h85v0l-191 -190l219 -204l-2 -1h-85l-174 163l-33 -33v-130z" />
    <glyph glyph-name="L" unicode="L" horiz-adv-x="322" 
d="M103 59h180v-60h-230v0h-10v398h60v-338z" />
    <glyph glyph-name="M" unicode="M" horiz-adv-x="464" 
d="M349 395h62v-17v-379h-60v290l-84 -123l-5 -6l-3 -6l-18 -26l-10 -16l-11 16l-18 26l-3 6l-5 6l-83 123v-290h-60v396h61l119 -175z" />
    <glyph glyph-name="N" unicode="N" horiz-adv-x="423" 
d="M43 0v379v17h63l210 -299v299h60v-383v-10v-2h-65l-208 294v-295h-60z" />
    <glyph glyph-name="O" unicode="O" horiz-adv-x="429" 
d="M212 -2c-51 0 -100 21 -136 60c-35 38 -54 87 -54 141c0 53 19 102 54 141c36 37 85 58 136 58s99 -21 135 -58c36 -39 56 -88 56 -141c0 -54 -20 -103 -56 -141c-36 -39 -84 -60 -135 -60zM212 338c-72 0 -130 -62 -130 -139c0 -78 58 -141 130 -141s131 63 131 141
c0 77 -59 139 -131 139z" />
    <glyph glyph-name="P" unicode="P" horiz-adv-x="300" 
d="M260 310c10 -19 15 -39 15 -60s-5 -42 -15 -60c-9 -18 -22 -34 -39 -48c-32 -26 -75 -41 -120 -42v-99h-60v397h58c46 0 89 -14 122 -41c17 -14 30 -29 39 -47zM183 189c21 16 32 38 32 61c0 22 -11 44 -32 60c-22 18 -50 28 -82 28v-178c32 1 60 11 82 29z" />
    <glyph glyph-name="Q" unicode="Q" horiz-adv-x="444" 
d="M409 -3l-44 -41l-61 66c-27 -15 -57 -24 -90 -24c-51 0 -99 21 -135 60c-36 38 -55 87 -55 141c0 53 19 102 55 141c36 37 84 58 135 58c52 0 100 -21 136 -58c35 -39 56 -88 56 -141s-20 -102 -54 -139zM214 58c18 0 33 4 48 10l-6 6l45 41l10 -11c21 25 35 58 35 95
c0 77 -60 139 -132 139s-130 -62 -130 -139c0 -78 58 -141 130 -141z" />
    <glyph glyph-name="R" unicode="R" horiz-adv-x="372" 
d="M94 121v-121h-60v397h69c85 0 131 -27 155 -49c23 -23 37 -53 37 -86c-1 -42 -26 -80 -72 -106c-1 -1 -2 -2 -3 -2l129 -154h-78l-110 130c-22 -5 -45 -8 -67 -9zM94 337v-156c35 1 72 11 99 27c49 28 54 65 23 96c-23 23 -71 36 -122 33z" />
    <glyph glyph-name="S" unicode="S" horiz-adv-x="363" 
d="M184 -7c-55 0 -104 19 -145 56l-23 20l40 45l23 -20c30 -27 65 -41 105 -41c7 0 27 1 47 10c17 7 28 19 34 34c2 6 3 12 3 16c0 6 -2 11 -3 14c-9 17 -34 33 -72 45c-11 3 -22 7 -33 10c-28 8 -54 14 -75 28c-31 19 -50 50 -50 87c0 22 8 43 23 60c16 19 49 44 111 48
c28 0 54 -3 79 -13c18 -7 35 -18 50 -31l22 -19l-39 -45l-22 19c-16 17 -49 29 -86 29c-32 -2 -57 -11 -69 -26c-5 -6 -9 -14 -9 -21c0 -34 26 -43 80 -58c12 -3 24 -7 37 -11c55 -18 90 -43 107 -76c6 -13 9 -26 9 -41c0 -12 -3 -23 -6 -35c-12 -31 -34 -55 -66 -69
c-30 -13 -58 -15 -72 -15z" />
    <glyph glyph-name="T" unicode="T" horiz-adv-x="307" 
d="M296 394v-60h-112v-336h-60v336h-114v60h286z" />
    <glyph glyph-name="U" unicode="U" horiz-adv-x="403" 
d="M289 393h60v-241l-1 -18c-6 -76 -70 -136 -147 -136c-82 0 -148 66 -148 148v247h61v-259c6 -43 43 -76 87 -76c48 0 88 39 88 88v247z" />
    <glyph glyph-name="V" unicode="V" horiz-adv-x="400" 
d="M169 -1l-3 8l-163 388h65l131 -310l130 310h65l-163 -388l-3 -8h-59z" />
    <glyph glyph-name="W" unicode="W" horiz-adv-x="597" 
d="M530 395h64l-142 -395h-65l-88 244l-88 -244h-64l-142 395h64l110 -307l89 245h63l88 -245z" />
    <glyph glyph-name="X" unicode="X" horiz-adv-x="374" 
d="M4 -2l147 196l-150 201h74l112 -151l113 151h75l-150 -201l146 -196h-75l-109 146l-108 -146h-75z" />
    <glyph glyph-name="Y" unicode="Y" horiz-adv-x="368" 
d="M149 172l-4 6l-162 217h75l124 -166l125 166h75l-162 -217l-5 -7l-2 -9v-162h-60v163z" />
    <glyph glyph-name="Z" unicode="Z" 
d="M376 395v-73l-252 -264h252v-60h-309h-24h-4v4v0v53v0l1 2l2 1l266 279h-269v58h337z" />
    <glyph glyph-name="space" unicode=" " horiz-adv-x="112" 
 />
    <glyph glyph-name="d" unicode="d" horiz-adv-x="379" 
d="M355 227v-31c-6 -126 -100 -197 -243 -197h-66v401h102c111 -3 197 -67 207 -173zM295 192v4c0 66 -34 145 -167 145l-22 -1v-281h6c103 0 183 49 183 133z" />
    <glyph glyph-name="NULL" horiz-adv-x="0" 
 />
    <glyph glyph-name="NULL" horiz-adv-x="0" 
 />
    <glyph glyph-name="CR" unicode="&#xd;" horiz-adv-x="112" 
 />
    <glyph glyph-name="A" unicode="A" 
d="M350 132l56 -131h-65l-40 91h-194l-40 -91h-65l170 393v0h65v0l104 -242zM133 152h143l-71 167z" />
    <glyph glyph-name="one" unicode="1" horiz-adv-x="163" 
d="M109 -2h-60v398h60v-398z" />
    <glyph glyph-name="two" unicode="2" horiz-adv-x="337" 
d="M32 3l-1 30c0 4 0 93 82 153c8 6 17 11 26 17c41 29 84 57 88 97c1 7 0 19 -9 31c-11 12 -29 20 -54 21c-32 3 -55 -13 -68 -27l-22 -21l-42 43l21 21c18 18 58 48 115 44c52 -3 81 -25 96 -43c17 -21 25 -48 22 -75c-6 -68 -66 -108 -114 -140c-9 -6 -16 -12 -24 -17
c-24 -17 -40 -39 -49 -66c-2 -3 -2 -5 -3 -8h168h30v-60h-30h-203h-29z" />
    <glyph glyph-name="three" unicode="3" horiz-adv-x="321" 
d="M130 -11c-27 0 -55 7 -81 21l-27 13l27 53l27 -13c21 -11 44 -15 66 -13c21 2 42 11 57 23c14 11 36 36 27 75c-4 16 -12 28 -25 35c-16 9 -38 10 -53 8c-18 -1 -30 -5 -30 -6l-78 -24l110 175h-122v60h231l-92 -145c24 -1 46 -6 63 -16c27 -15 46 -40 54 -73
c13 -52 -5 -103 -48 -137c-25 -19 -55 -31 -87 -34c-6 -1 -13 -2 -19 -2z" />
    <glyph glyph-name="zero" unicode="0" horiz-adv-x="375" 
d="M184 -1c-24 0 -48 5 -70 16c-21 10 -40 25 -56 43c-33 38 -51 87 -51 139c0 53 18 102 51 140c16 18 35 33 56 43c22 11 46 16 70 16c25 0 49 -5 71 -16c22 -10 40 -25 57 -43c32 -38 50 -87 50 -140c0 -52 -18 -101 -50 -139c-17 -18 -35 -33 -57 -43
c-22 -11 -46 -16 -71 -16zM184 336c-64 0 -117 -62 -117 -139c0 -76 53 -138 117 -138c66 0 118 62 118 138c0 77 -52 139 -118 139z" />
    <glyph glyph-name="four" unicode="4" horiz-adv-x="337" 
d="M217 83h89v-60h-89v-49h-60v49h-159l151 372h65l-129 -312h72v77h60v-77z" />
    <glyph glyph-name="five" unicode="5" horiz-adv-x="302" 
d="M255 128c1 -19 -2 -38 -10 -56c-14 -35 -43 -63 -76 -74c-23 -9 -42 -12 -60 -12c-27 0 -48 8 -63 16c-27 15 -40 35 -42 37l51 32v0s7 -10 22 -17c20 -10 44 -10 72 0c14 5 32 18 41 40c8 21 6 45 -6 69c-6 12 -15 21 -29 26c-12 5 -27 8 -45 8h-1c-32 0 -60 -8 -60 -8
l-45 -14l33 213l2 8h27h161v-60h-138l-13 -81c11 1 23 2 35 2c25 -1 48 -4 67 -13c27 -11 47 -29 60 -54c9 -20 15 -41 17 -62z" />
    <glyph glyph-name="six" unicode="6" horiz-adv-x="303" 
d="M136 -3c-31 0 -57 9 -78 27c-38 31 -55 87 -51 166c1 41 8 78 18 108c11 31 27 56 46 73c25 23 56 35 90 32c23 0 47 -9 67 -23c15 -10 23 -19 25 -22l-48 -37h1c-1 0 -19 22 -48 22c-18 2 -33 -4 -46 -16c-21 -19 -36 -56 -42 -103c16 11 33 18 51 22c24 5 48 4 70 -5
c45 -17 80 -58 85 -99c4 -31 -5 -63 -24 -90c-19 -26 -47 -44 -79 -51c-13 -3 -25 -4 -37 -4zM67 143c3 -35 13 -60 29 -73c15 -13 37 -16 64 -10c18 4 33 13 44 28c10 14 14 31 13 48c-1 6 -5 15 -14 25c-9 11 -20 19 -33 23c-12 5 -24 6 -37 3c-15 -3 -30 -12 -45 -25z
" />
    <glyph glyph-name="seven" unicode="7" horiz-adv-x="310" 
d="M19 392h288l-208 -396h-63l-4 2l176 334h-189v60z" />
    <glyph glyph-name="eight" unicode="8" horiz-adv-x="308" 
d="M265 142c16 -30 15 -61 -1 -89c-11 -19 -29 -35 -53 -46c-21 -10 -44 -16 -66 -16h-1c-32 1 -61 10 -84 26c-27 20 -42 46 -42 75c0 23 7 44 20 65c10 15 23 30 40 45c3 2 5 4 8 6c-21 14 -46 35 -57 63c-10 23 -9 47 2 71c17 38 55 62 105 65c22 2 46 -1 66 -8
c17 -6 39 -17 51 -36c22 -36 19 -67 13 -86c-10 -34 -38 -57 -58 -69c21 -16 41 -38 57 -66zM85 294c9 -23 36 -39 57 -47c17 -7 36 12 47 21c13 12 23 26 21 43c-2 12 -8 22 -18 28c-24 15 -63 12 -88 -2c-16 -9 -27 -25 -19 -43zM212 84c6 10 6 19 0 29
c-17 32 -46 53 -65 65c-8 -6 -20 -13 -31 -23c-17 -15 -38 -38 -38 -63c0 -22 31 -40 66 -41h1c27 0 57 15 67 33z" />
    <glyph glyph-name="nine" unicode="9" horiz-adv-x="327" 
d="M140 3h-7c-23 1 -46 10 -66 23c-15 11 -24 20 -25 23l47 37h-1c1 0 19 -22 48 -23c18 -1 33 4 47 16c21 20 36 56 42 104c-17 -11 -34 -19 -51 -23c-24 -4 -48 -3 -71 6c-44 16 -80 58 -84 99c-4 31 4 63 24 90c19 26 47 44 79 51c46 9 86 2 116 -23
c36 -31 54 -87 50 -166c-2 -41 -8 -78 -19 -108c-10 -31 -26 -56 -46 -74c-23 -21 -51 -32 -83 -32zM159 350c-8 0 -16 -1 -25 -3c-17 -4 -32 -13 -43 -28c-10 -14 -15 -31 -13 -48c1 -6 4 -15 13 -26c9 -10 21 -19 33 -23c12 -5 24 -5 37 -2c16 3 31 12 46 25l20 19
c-3 35 -13 60 -28 73c-11 9 -24 13 -40 13z" />
    <glyph glyph-name="colon" unicode=":" horiz-adv-x="202" 
d="M143 270c0 -22 -17 -39 -39 -39s-39 17 -39 39s17 39 39 39s39 -17 39 -39zM143 126c0 -22 -17 -39 -39 -39s-39 17 -39 39s17 39 39 39s39 -17 39 -39z" />
    <glyph glyph-name="semicolon" unicode=";" horiz-adv-x="203" 
d="M143 270c0 -22 -17 -39 -39 -39s-39 17 -39 39s17 39 39 39s39 -17 39 -39zM130 180c3 -6 3 -14 2 -20c-3 -32 -14 -63 -31 -90c-4 -7 -9 -13 -15 -18c-6 -3 -14 -6 -21 -3c9 28 11 58 7 87c-1 9 -3 18 -2 27c0 9 3 18 11 23c7 5 21 5 30 4c7 0 15 -4 19 -10z" />
    <glyph glyph-name="exclam" unicode="!" horiz-adv-x="133" 
d="M99 105h-68v337h68v-337zM100 -4c0 -22 -17 -39 -39 -39c-21 0 -39 17 -39 39s18 39 39 39c22 0 39 -17 39 -39z" />
    <glyph glyph-name="ampersand" unicode="&#x26;" horiz-adv-x="324" 
d="M100 -17c-12 0 -24 3 -36 7c-42 16 -72 60 -72 107c0 39 24 80 68 119c7 6 14 11 21 16c-14 18 -25 36 -33 51c-18 35 -15 78 7 108c24 31 63 44 105 35c22 -5 52 -23 67 -51c8 -17 16 -44 2 -77c-15 -36 -44 -64 -60 -78c18 -21 39 -45 62 -69c52 -55 97 -99 98 -99
l22 -21l-41 -43l-22 20c-5 5 -98 93 -170 177c-6 -4 -12 -10 -19 -16c-30 -26 -47 -51 -47 -72c0 -22 15 -44 33 -51c21 -8 47 3 71 30l20 22l45 -40l-20 -22c-31 -35 -67 -53 -101 -53zM135 369c-14 0 -24 -5 -32 -14c-9 -12 -9 -30 -2 -45c7 -12 17 -27 29 -44
c13 11 33 31 44 56c5 12 2 20 0 25c-6 12 -21 20 -26 20c-5 1 -9 2 -13 2z" />
    <glyph glyph-name="question" unicode="?" horiz-adv-x="320" 
d="M177 108l-60 -1v11c-1 39 -2 86 23 119c12 16 27 25 40 33c8 4 15 9 20 13c11 12 20 24 26 36c7 14 9 27 7 39c-2 17 -10 28 -18 34c-10 10 -22 16 -36 18c-19 4 -40 0 -58 -10c-18 -9 -32 -25 -39 -43l-10 -28l-56 21l10 29c12 31 36 57 67 74c30 16 64 22 97 16
c24 -4 48 -15 66 -33c21 -18 33 -43 37 -69c3 -24 -1 -49 -12 -72c-9 -21 -23 -39 -40 -55c-9 -9 -20 -16 -30 -21c-9 -7 -18 -12 -24 -19c-12 -16 -11 -52 -10 -80v-12zM185 -7c0 -19 -17 -37 -37 -37c-21 0 -37 18 -37 37c0 21 16 38 37 38c20 0 37 -17 37 -38z" />
    <glyph glyph-name="at" unicode="@" horiz-adv-x="487" 
d="M425 356c23 -34 35 -72 34 -110c0 -35 -11 -68 -31 -92c0 -2 -1 -3 -1 -3c-11 -13 -24 -30 -43 -42c-26 -15 -55 -15 -81 0c-14 9 -24 22 -29 40c-12 -16 -24 -28 -38 -37c-20 -12 -42 -16 -64 -11c-19 4 -33 15 -42 31c-17 33 -2 77 5 94c17 41 55 84 108 82
c12 -1 24 -3 34 -7c1 3 3 6 3 9l58 -13c-1 -13 -2 -28 -4 -41c0 -11 -1 -21 -2 -31v0v0c-1 -6 -1 -12 -1 -17v-3c-1 -9 -2 -21 -1 -30c1 -11 4 -14 4 -14c8 -5 13 -4 19 -1c9 6 19 18 26 27c1 2 2 3 3 3c11 15 17 34 17 57c1 26 -8 52 -23 75c-16 24 -39 42 -63 54
c-24 11 -53 15 -82 12s-56 -13 -80 -29c-46 -31 -80 -84 -90 -143c-4 -30 -3 -59 5 -87s22 -52 41 -70c25 -22 60 -36 99 -38c35 -2 66 1 94 10l28 9l19 -57l-28 -9c-28 -9 -59 -14 -92 -14c-8 0 -16 0 -25 1c-52 4 -100 22 -135 54c-27 25 -48 58 -59 97
c-10 36 -12 75 -6 113c6 37 20 73 39 104c20 32 47 61 77 80c32 21 69 34 107 39c39 3 78 -3 112 -18c35 -15 66 -42 88 -74zM229 188c10 17 19 37 27 56c-5 3 -12 3 -15 4c-15 0 -36 -11 -51 -45c-9 -21 -9 -38 -7 -43h1c6 -2 22 -5 45 28z" />
    <glyph glyph-name="dollar" unicode="$" horiz-adv-x="336" 
d="M303 147c11 -23 13 -50 3 -77c-11 -30 -34 -54 -66 -69c-19 -8 -38 -12 -53 -13v-50h-60v52c-38 8 -72 25 -104 53l-22 19l40 45l22 -20c19 -17 41 -29 64 -35v128c-21 6 -41 13 -58 24c-28 17 -44 43 -48 75c-4 25 4 51 21 71c14 17 40 37 85 45v48h60v-46
c16 -2 31 -6 46 -12c18 -7 35 -17 49 -30l23 -19l-40 -46l-22 20c-12 10 -31 22 -56 27v-111c3 -1 6 -3 9 -3c55 -18 91 -44 107 -76zM80 286c3 -22 17 -33 47 -43v91c-17 -5 -30 -12 -39 -22c-6 -8 -9 -17 -8 -26zM250 91c5 15 2 24 -1 30c-8 15 -29 30 -62 42v-114
c9 0 19 3 29 7c17 8 28 19 34 35z" />
    <glyph glyph-name="numbersign" unicode="#" horiz-adv-x="444" 
d="M412 232h-103l-14 -69h103l-12 -60h-103l-21 -103h-60l21 103h-71l-21 -103h-60l21 103h-103l12 60h104l13 69h-103l12 60h104l21 103h60l-21 -103h70l21 103h60l-21 -103h103zM235 163l14 69h-71l-13 -69h70z" />
    <glyph glyph-name="percent" unicode="%" horiz-adv-x="442" 
d="M126 1h-71l231 429h69zM92 281c-41 0 -76 33 -76 73c0 39 35 71 76 71c42 0 76 -32 76 -71c0 -40 -34 -73 -76 -73zM92 386c-19 0 -34 -15 -34 -32c0 -19 15 -34 34 -34s35 15 35 34c0 17 -16 32 -35 32zM325 -3c-42 0 -77 32 -77 71c0 41 35 73 77 73
c41 0 75 -32 75 -73c0 -39 -34 -71 -75 -71zM325 102c-20 0 -36 -15 -36 -34c0 -17 16 -31 36 -31c19 0 34 14 34 31c0 19 -15 34 -34 34z" />
    <glyph glyph-name="period" unicode="." horiz-adv-x="202" 
d="M143 66c0 -22 -17 -39 -39 -39s-39 17 -39 39s17 39 39 39s39 -17 39 -39z" />
    <glyph glyph-name="slash" unicode="/" horiz-adv-x="442" 
d="M126 -29h-71l201 452h69z" />
    <glyph glyph-name="backslash" unicode="\" horiz-adv-x="442" 
d="M255 -29l-200 452h70l200 -452h-70z" />
    <glyph glyph-name="less" unicode="&#x3c;" horiz-adv-x="291" 
d="M231 281l-101 -100l101 -101l-43 -43l-143 144l143 143z" />
    <glyph glyph-name="greater" unicode="&#x3e;" horiz-adv-x="291" 
d="M45 281l43 43l143 -143l-143 -144l-43 43l100 101z" />
    <glyph glyph-name="equal" unicode="=" horiz-adv-x="337" 
d="M264 237h-192v60h192v-60zM264 132h-192v60h192v-60z" />
    <glyph glyph-name="quotesingle" unicode="'" horiz-adv-x="135" 
d="M39 310l-3 138h67l-20 -147z" />
    <glyph glyph-name="parenleft" unicode="(" horiz-adv-x="177" 
d="M108 -84l-19 26c-43 59 -68 146 -68 239s25 180 68 239l19 25l52 -38l-19 -25c-17 -23 -30 -53 -40 -86c-10 -35 -15 -75 -15 -115c0 -42 5 -80 15 -116c10 -34 23 -63 40 -85l19 -26z" />
    <glyph glyph-name="parenright" unicode=")" horiz-adv-x="177" 
d="M73 -84l-52 38l19 26c17 22 30 51 40 85c10 36 15 74 15 116c0 40 -5 80 -15 115c-10 33 -23 63 -40 86l-19 25l52 38l19 -25c43 -59 68 -146 68 -239s-25 -180 -68 -239z" />
    <glyph glyph-name="asterisk" unicode="*" horiz-adv-x="201" 
d="M184 366v-33h-45l32 -32l-23 -24l-32 33v-47h-34v47l-32 -33l-22 24l31 32h-46v33h46l-31 33l22 22l32 -31v46h34v-46l32 31l23 -22l-32 -33h45z" />
    <glyph glyph-name="plus" unicode="+" horiz-adv-x="378" 
d="M312 241v-60h-94v-95h-60v95h-94v60h94v93h60v-93h94z" />
    <glyph glyph-name="quotedbl" unicode="&#x22;" horiz-adv-x="259" 
d="M46 299l-7 120l59 -1l-7 -117zM129 299l-8 120l60 -1l-8 -117z" />
    <glyph glyph-name="hyphen" unicode="-" horiz-adv-x="337" 
d="M264 132h-192v60h192v-60z" />
    <glyph glyph-name="comma" unicode="," horiz-adv-x="203" 
d="M130 180c3 -6 3 -14 2 -20c-3 -32 -14 -63 -31 -90c-4 -7 -9 -13 -15 -18c-6 -3 -14 -6 -21 -3c9 28 11 58 7 87c-1 9 -3 18 -2 27c0 9 3 18 11 23c7 5 21 5 30 4c7 0 15 -4 19 -10z" />
    <glyph glyph-name="bracketleft" unicode="[" horiz-adv-x="286" 
d="M218 -74h-141v519h141v-60h-81v-399h81v-60z" />
    <glyph glyph-name="bracketright" unicode="]" horiz-adv-x="257" 
d="M47 -74v60h81v399h-81v60h141v-519h-141z" />
    <glyph glyph-name="underscore" unicode="_" horiz-adv-x="337" 
d="M294 4h-275v60h275v-60z" />
    <glyph glyph-name="asciicircum" unicode="^" horiz-adv-x="291" 
d="M178 190l-54 54l-54 -54l-24 22l78 77l78 -77z" />
    <glyph glyph-name="grave" unicode="`" horiz-adv-x="135" 
d="M85 311l-63 66l36 33l54 -82z" />
    <glyph glyph-name="asciitilde" unicode="~" horiz-adv-x="286" 
d="M91 157c-36 0 -64 31 -67 34l45 40v1c5 -6 16 -15 22 -15s18 8 27 16c7 7 37 35 69 35c39 0 67 -34 70 -39l-47 -36v0c-6 7 -17 15 -23 15c-5 0 -18 -9 -27 -18v0v0c-6 -6 -36 -33 -69 -33z" />
    <glyph glyph-name="a" unicode="a" 
d="M350 132l56 -131h-65l-40 91h-194l-40 -91h-65l170 393v0h65v0l104 -242zM133 152h143l-71 167z" />
    <glyph glyph-name="b" unicode="b" horiz-adv-x="361" 
d="M291 194c20 -22 31 -50 31 -80c0 -58 -42 -107 -96 -114l-177 -1v395l173 -1c55 -3 94 -53 94 -109c0 -32 -13 -61 -34 -80c3 -3 6 -6 9 -10zM109 334v-103l98 -1c27 0 49 26 49 54s-22 50 -49 50h-98zM213 59c28 0 49 25 49 55s-21 57 -49 57h-104v-112h104zM220 -1h-17
h17z" />
    <glyph glyph-name="c" unicode="c" horiz-adv-x="386" 
d="M204 1c-51 0 -98 21 -134 58s-55 86 -55 138c0 53 19 102 55 139s83 58 134 58c27 0 52 -6 77 -17c23 -11 44 -26 62 -46l19 -22l-44 -40l-20 22c-25 28 -58 43 -94 43c-71 0 -129 -61 -129 -137c0 -75 58 -136 129 -136c36 0 69 15 94 43l20 22l44 -40l-19 -22
c-18 -20 -39 -35 -62 -46c-25 -11 -50 -17 -77 -17z" />
    <glyph glyph-name="e" unicode="e" horiz-adv-x="371" 
d="M322 337h-215v-100h191v-60h-191v-118h215v-60h-275v0v60v118v60v100v60h60h215v-60z" />
    <glyph glyph-name="f" unicode="f" horiz-adv-x="323" 
d="M313 337h-201v-100h157v-60h-157v-178h-60v0v60v118v60v100v60h60h201v-60z" />
    <glyph glyph-name="g" unicode="g" horiz-adv-x="403" 
d="M211 1c-96 0 -183 82 -183 196c0 108 83 197 189 197c79 0 151 -48 156 -120l-60 -2c-2 37 -47 62 -96 62c-73 0 -129 -61 -129 -137c0 -73 53 -136 124 -136c45 0 98 38 104 87h-123v60h189v-14c0 -113 -70 -193 -171 -193z" />
    <glyph glyph-name="h" unicode="h" horiz-adv-x="411" 
d="M298 396h60v-398h-60v169h-195v-169h-60v398h60v-169h195v169z" />
    <glyph glyph-name="i" unicode="i" horiz-adv-x="172" 
d="M116 -2h-60v398h60v-398z" />
    <glyph glyph-name="j" unicode="j" horiz-adv-x="325" 
d="M148 -3c-40 1 -80 13 -105 40l-21 23l45 40l20 -21c14 -12 39 -23 63 -23c13 0 26 3 37 11c19 14 21 55 21 87v60c0 33 0 67 -1 99l-2 82h60c1 -44 1 -61 2 -81c1 -32 1 -66 1 -100v-60c0 -45 -3 -103 -45 -135c-26 -20 -57 -21 -75 -22z" />
    <glyph glyph-name="k" unicode="k" horiz-adv-x="421" 
d="M112 0h-60v395h60v-181l181 181h85v0l-191 -190l219 -204l-2 -1h-85l-174 163l-33 -33v-130z" />
    <glyph glyph-name="l" unicode="l" horiz-adv-x="310" 
d="M103 59h180v-60h-230v0h-10v398h60v-338z" />
    <glyph glyph-name="m" unicode="m" horiz-adv-x="464" 
d="M349 395h62v-17v-379h-60v290l-84 -123l-5 -6l-3 -6l-18 -26l-10 -16l-11 16l-18 26l-3 6l-5 6l-83 123v-290h-60v396h61l119 -175z" />
    <glyph glyph-name="n" unicode="n" horiz-adv-x="423" 
d="M43 0v379v17h63l210 -299v299h60v-383v-10v-2h-65l-208 294v-295h-60z" />
    <glyph glyph-name="o" unicode="o" horiz-adv-x="429" 
d="M212 -2c-51 0 -100 21 -136 60c-35 38 -54 87 -54 141c0 53 19 102 54 141c36 37 85 58 136 58s99 -21 135 -58c36 -39 56 -88 56 -141c0 -54 -20 -103 -56 -141c-36 -39 -84 -60 -135 -60zM212 338c-72 0 -130 -62 -130 -139c0 -78 58 -141 130 -141s131 63 131 141
c0 77 -59 139 -131 139z" />
    <glyph glyph-name="p" unicode="p" horiz-adv-x="300" 
d="M260 310c10 -19 15 -39 15 -60s-5 -42 -15 -60c-9 -18 -22 -34 -39 -48c-32 -26 -75 -41 -120 -42v-99h-60v397h58c46 0 89 -14 122 -41c17 -14 30 -29 39 -47zM183 189c21 16 32 38 32 61c0 22 -11 44 -32 60c-22 18 -50 28 -82 28v-178c32 1 60 11 82 29z" />
    <glyph glyph-name="q" unicode="q" horiz-adv-x="444" 
d="M409 -3l-44 -41l-61 66c-27 -15 -57 -24 -90 -24c-51 0 -99 21 -135 60c-36 38 -55 87 -55 141c0 53 19 102 55 141c36 37 84 58 135 58c52 0 100 -21 136 -58c35 -39 56 -88 56 -141s-20 -102 -54 -139zM214 58c18 0 33 4 48 10l-6 6l45 41l10 -11c21 25 35 58 35 95
c0 77 -60 139 -132 139s-130 -62 -130 -139c0 -78 58 -141 130 -141z" />
    <glyph glyph-name="r" unicode="r" horiz-adv-x="372" 
d="M94 121v-121h-60v397h69c85 0 131 -27 155 -49c23 -23 37 -53 37 -86c-1 -42 -26 -80 -72 -106c-1 -1 -2 -2 -3 -2l129 -154h-78l-110 130c-22 -5 -45 -8 -67 -9zM94 337v-156c35 1 72 11 99 27c49 28 54 65 23 96c-23 23 -71 36 -122 33z" />
    <glyph glyph-name="s" unicode="s" horiz-adv-x="363" 
d="M184 -7c-55 0 -104 19 -145 56l-23 20l40 45l23 -20c30 -27 65 -41 105 -41c7 0 27 1 47 10c17 7 28 19 34 34c2 6 3 12 3 16c0 6 -2 11 -3 14c-9 17 -34 33 -72 45c-11 3 -22 7 -33 10c-28 8 -54 14 -75 28c-31 19 -50 50 -50 87c0 22 8 43 23 60c16 19 49 44 111 48
c28 0 54 -3 79 -13c18 -7 35 -18 50 -31l22 -19l-39 -45l-22 19c-16 17 -49 29 -86 29c-32 -2 -57 -11 -69 -26c-5 -6 -9 -14 -9 -21c0 -34 26 -43 80 -58c12 -3 24 -7 37 -11c55 -18 90 -43 107 -76c6 -13 9 -26 9 -41c0 -12 -3 -23 -6 -35c-12 -31 -34 -55 -66 -69
c-30 -13 -58 -15 -72 -15z" />
    <glyph glyph-name="t" unicode="t" horiz-adv-x="307" 
d="M296 394v-60h-112v-336h-60v336h-114v60h286z" />
    <glyph glyph-name="u" unicode="u" horiz-adv-x="403" 
d="M289 393h60v-241l-1 -18c-6 -76 -70 -136 -147 -136c-82 0 -148 66 -148 148v247h61v-259c6 -43 43 -76 87 -76c48 0 88 39 88 88v247z" />
    <glyph glyph-name="v" unicode="v" horiz-adv-x="400" 
d="M169 -1l-3 8l-163 388h65l131 -310l130 310h65l-163 -388l-3 -8h-59z" />
    <glyph glyph-name="w" unicode="w" horiz-adv-x="597" 
d="M530 395h64l-142 -395h-65l-88 244l-88 -244h-64l-142 395h64l110 -307l89 245h63l88 -245z" />
    <glyph glyph-name="x" unicode="x" horiz-adv-x="374" 
d="M4 -2l147 196l-150 201h74l112 -151l113 151h75l-150 -201l146 -196h-75l-109 146l-108 -146h-75z" />
    <glyph glyph-name="y" unicode="y" horiz-adv-x="368" 
d="M149 172l-4 6l-162 217h75l124 -166l125 166h75l-162 -217l-5 -7l-2 -9v-162h-60v163z" />
    <glyph glyph-name="z" unicode="z" 
d="M376 395v-73l-252 -264h252v-60h-309h-24h-4v4v0v53v0l1 2l2 1l266 279h-269v58h337z" />
    <glyph glyph-name="braceleft" unicode="{" horiz-adv-x="210" 
d="M169 -90l-29 7c-46 11 -75 35 -85 71c-9 29 -4 61 0 88c3 21 6 39 4 54c-1 1 -4 10 -17 24c-11 11 -26 21 -38 28v54c10 5 27 16 42 32c18 18 22 30 23 33c1 11 -2 24 -6 39c-5 19 -10 41 -6 65c4 19 14 38 30 54c13 13 31 24 50 31l29 11l21 -56l-28 -11
c-23 -9 -40 -25 -43 -40c-1 -11 2 -25 5 -40c5 -18 10 -38 7 -61c-3 -25 -22 -49 -39 -67c-6 -6 -12 -12 -19 -17c24 -20 44 -46 48 -69c4 -24 0 -49 -3 -73c-4 -23 -8 -46 -3 -62c6 -21 32 -28 42 -30l30 -7z" />
    <glyph glyph-name="braceright" unicode="}" horiz-adv-x="210" 
d="M21 -90l-14 58l29 7c10 2 36 9 43 30c4 16 0 39 -3 62c-4 24 -8 49 -4 73c4 23 24 49 48 69c-7 5 -13 11 -19 17c-16 18 -36 42 -39 67c-3 23 2 43 7 61c4 15 7 29 5 40c-3 15 -19 31 -43 40l-27 11l21 56l28 -11c20 -7 37 -18 50 -31c16 -16 27 -35 30 -54
c4 -24 -1 -46 -6 -65c-3 -15 -6 -28 -6 -39c1 -3 6 -15 23 -33c16 -16 32 -27 42 -32l1 -54c-13 -7 -27 -17 -39 -28c-12 -14 -16 -23 -17 -24c-2 -15 1 -33 4 -54c4 -27 10 -59 1 -88c-11 -36 -40 -60 -86 -71z" />
    <glyph glyph-name="bar" unicode="|" horiz-adv-x="150" 
d="M103 -2h-58c-2 0 -5 2 -5 4v391c0 2 3 4 5 4h58c3 0 5 -2 5 -4v-391c0 -2 -2 -4 -5 -4z" />
    <glyph glyph-name="Euro" unicode="&#x20ac;" horiz-adv-x="375" 
d="M269 74l19 23l46 -38l-18 -23c-34 -41 -80 -64 -128 -64c-76 0 -142 58 -166 137h-58v60h46c-1 9 -1 20 -1 30h-45v60h54c23 87 92 150 170 150c49 0 97 -24 129 -67l19 -23l-47 -38l-18 24c-22 28 -53 43 -83 44c-46 0 -87 -36 -108 -90h97v-60h-108c0 -10 0 -21 1 -30
h107v-60h-91c21 -49 61 -77 102 -77c29 0 59 15 81 42z" />
    <glyph glyph-name="sterling" unicode="&#xa3;" horiz-adv-x="322" 
d="M251 82l34 -49l-25 -17c-20 -13 -45 -21 -75 -21c-37 0 -67 11 -99 11c-22 0 -59 -2 -72 -5l-25 53c85 67 74 91 74 106v9h-64v60h53c-4 15 -23 51 -23 87c0 59 54 104 114 104c25 0 55 -7 82 -21l26 -14l-27 -54l-27 14c-22 10 -39 15 -52 15c-31 0 -56 -20 -56 -44
s18 -60 25 -87h76v-60h-67v-10c0 -38 -9 -65 -34 -93c36 0 68 -11 97 -11c17 0 30 4 40 11z" />
    <glyph glyph-name="OE" unicode="&#x152;" horiz-adv-x="666" 
d="M209 -2c-51 0 -100 21 -136 60c-35 38 -54 87 -54 141c0 53 19 102 54 141c36 37 85 58 136 58s99 -21 135 -58c8 -9 14 -18 21 -27v81h275v-60h-215v-99h191v-60h-191v-118h215v-60h-275v87c-7 -10 -13 -18 -21 -26c-36 -39 -84 -60 -135 -60zM209 338
c-72 0 -130 -62 -130 -139c0 -78 58 -141 130 -141s131 63 131 141c0 77 -59 139 -131 139z" />
    <glyph glyph-name="oe" unicode="&#x153;" horiz-adv-x="666" 
d="M209 -2c-51 0 -100 21 -136 60c-35 38 -54 87 -54 141c0 53 19 102 54 141c36 37 85 58 136 58s99 -21 135 -58c8 -9 14 -18 21 -27v81h275v-60h-215v-99h191v-60h-191v-118h215v-60h-275v87c-7 -10 -13 -18 -21 -26c-36 -39 -84 -60 -135 -60zM209 338
c-72 0 -130 -62 -130 -139c0 -78 58 -141 130 -141s131 63 131 141c0 77 -59 139 -131 139z" />
    <glyph glyph-name="dieresis" unicode="&#xa8;" horiz-adv-x="175" 
d="M75 337c0 -14 -12 -25 -26 -25s-25 11 -25 25c0 15 11 26 25 26s26 -11 26 -26zM155 337c0 -14 -12 -25 -25 -25c-15 0 -26 11 -26 25s11 25 26 25c13 0 25 -11 25 -25z" />
    <glyph glyph-name="Adieresis" unicode="&#xc4;" horiz-adv-x="431" 
d="M350 132l56 -131h-65l-40 91h-194l-40 -91h-65l170 393v0h65v0l104 -242zM133 152h143l-71 167zM201 487c0 -14 -12 -25 -26 -25s-25 11 -25 25c0 15 11 26 25 26s26 -11 26 -26zM281 487c0 -14 -12 -25 -25 -25c-15 0 -26 11 -26 25s11 25 26 25c13 0 25 -11 25 -25z
" />
    <glyph glyph-name="Udieresis" unicode="&#xdc;" horiz-adv-x="403" 
d="M289 393h60v-241l-1 -18c-6 -76 -70 -136 -147 -136c-82 0 -148 66 -148 148v247h61v-259c6 -43 43 -76 87 -76c48 0 88 39 88 88v247zM187 487c0 -14 -12 -25 -26 -25s-25 11 -25 25c0 15 11 26 25 26s26 -11 26 -26zM267 487c0 -14 -12 -25 -25 -25
c-15 0 -26 11 -26 25s11 25 26 25c13 0 25 -11 25 -25z" />
    <glyph glyph-name="Odieresis" unicode="&#xd6;" horiz-adv-x="434" 
d="M212 -2c-51 0 -100 21 -136 60c-35 38 -54 87 -54 141c0 53 19 102 54 141c36 37 85 58 136 58s99 -21 135 -58c36 -39 56 -88 56 -141c0 -54 -20 -103 -56 -141c-36 -39 -84 -60 -135 -60zM212 338c-72 0 -130 -62 -130 -139c0 -78 58 -141 130 -141s131 63 131 141
c0 77 -59 139 -131 139zM202 487c0 -14 -12 -25 -26 -25s-25 11 -25 25c0 15 11 26 25 26s26 -11 26 -26zM282 487c0 -14 -12 -25 -25 -25c-15 0 -26 11 -26 25s11 25 26 25c13 0 25 -11 25 -25z" />
    <glyph glyph-name="adieresis" unicode="&#xe4;" horiz-adv-x="431" 
d="M350 132l56 -131h-65l-40 91h-194l-40 -91h-65l170 393v0h65v0l104 -242zM133 152h143l-71 167zM201 487c0 -14 -12 -25 -26 -25s-25 11 -25 25c0 15 11 26 25 26s26 -11 26 -26zM281 487c0 -14 -12 -25 -25 -25c-15 0 -26 11 -26 25s11 25 26 25c13 0 25 -11 25 -25z
" />
    <glyph glyph-name="acute" unicode="&#xb4;" horiz-adv-x="135" 
d="M51 304l-28 17l55 82l36 -33z" />
    <glyph glyph-name="Eacute" unicode="&#xc9;" horiz-adv-x="371" 
d="M322 337h-215v-100h191v-60h-191v-118h215v-60h-275v0v60v118v60v100v60h60h215v-60zM168 454l-28 17l55 82l36 -33z" />
    <glyph glyph-name="Oacute" unicode="&#xd3;" horiz-adv-x="434" 
d="M212 -2c51 0 99 21 135 60c36 38 56 87 56 141c0 53 -20 102 -56 141c-36 37 -84 58 -135 58s-100 -21 -136 -58c-35 -39 -54 -88 -54 -141c0 -54 19 -103 54 -141c36 -39 85 -60 136 -60zM212 338c72 0 131 -62 131 -139c0 -78 -59 -141 -131 -141s-130 63 -130 141
c0 77 58 139 130 139zM199 454l-28 17l55 82l36 -33z" />
    <glyph glyph-name="Ograve" unicode="&#xd2;" horiz-adv-x="434" 
d="M212 -2c-51 0 -100 21 -136 60c-35 38 -54 87 -54 141c0 53 19 102 54 141c36 37 85 58 136 58s99 -21 135 -58c36 -39 56 -88 56 -141c0 -54 -20 -103 -56 -141c-36 -39 -84 -60 -135 -60zM212 338c-72 0 -130 -62 -130 -139c0 -78 58 -141 130 -141s131 63 131 141
c0 77 -59 139 -131 139zM233 461l-63 66l36 33l54 -82z" />
    <glyph glyph-name="Aacute" unicode="&#xc1;" 
d="M350 132l56 -131h-65l-40 91h-194l-40 -91h-65l170 393v0h65v0l104 -242zM133 152h143l-71 167zM188 454l-28 17l55 82l36 -33z" />
    <glyph glyph-name="Edieresis" unicode="&#xcb;" horiz-adv-x="371" 
d="M322 337h-215v-100h191v-60h-191v-118h215v-60h-275v0v60v118v60v100v60h60h215v-60zM171 487c0 -14 -12 -25 -26 -25s-25 11 -25 25c0 15 11 26 25 26s26 -11 26 -26zM251 487c0 -14 -12 -25 -25 -25c-15 0 -26 11 -26 25s11 25 26 25c13 0 25 -11 25 -25z" />
    <glyph glyph-name="Egrave" unicode="&#xc8;" horiz-adv-x="371" 
d="M322 337h-215v-100h191v-60h-191v-118h215v-60h-275v0v60v118v60v100v60h60h215v-60zM203 461l-63 66l36 33l54 -82z" />
    <glyph glyph-name="Iacute" unicode="&#xcd;" horiz-adv-x="172" 
d="M116 -2v398h-60v-398h60zM68 454l-28 17l55 82l36 -33z" />
    <glyph glyph-name="Idieresis" unicode="&#xcf;" horiz-adv-x="172" 
d="M116 -2h-60v398h60v-398zM72 487c0 -14 -12 -25 -26 -25s-25 11 -25 25c0 15 11 26 25 26s26 -11 26 -26zM152 487c0 -14 -12 -25 -25 -25c-15 0 -26 11 -26 25s11 25 26 25c13 0 25 -11 25 -25z" />
    <glyph glyph-name="Igrave" unicode="&#xcc;" horiz-adv-x="172" 
d="M116 -2h-60v398h60v-398zM104 461l-63 66l36 33l54 -82z" />
    <glyph glyph-name="Agrave" unicode="&#xc0;" 
d="M350 132l56 -131h-65l-40 91h-194l-40 -91h-65l170 393v0h65v0l104 -242zM133 152h143l-71 167zM224 461l-63 66l36 33l54 -82z" />
    <glyph glyph-name="ydieresis" unicode="&#xff;" horiz-adv-x="441" 
d="M149 172l-4 6l-162 217h75l124 -166l125 166h75l-162 -217l-5 -7l-2 -9v-162h-60v163zM205 487c0 -14 -12 -25 -26 -25s-25 11 -25 25c0 15 11 26 25 26s26 -11 26 -26zM285 487c0 -14 -12 -25 -25 -25c-15 0 -26 11 -26 25s11 25 26 25c13 0 25 -11 25 -25z" />
    <glyph glyph-name="Ydieresis" unicode="&#x178;" horiz-adv-x="441" 
d="M149 172l-4 6l-162 217h75l124 -166l125 166h75l-162 -217l-5 -7l-2 -9v-162h-60v163zM205 487c0 -14 -12 -25 -26 -25s-25 11 -25 25c0 15 11 26 25 26s26 -11 26 -26zM285 487c0 -14 -12 -25 -25 -25c-15 0 -26 11 -26 25s11 25 26 25c13 0 25 -11 25 -25z" />
    <glyph glyph-name="Yacute" unicode="&#xdd;" horiz-adv-x="441" 
d="M149 172l-4 6l-162 217h75l124 -166l125 166h75l-162 -217l-5 -7l-2 -9v-162h-60v163zM202 454l-28 17l55 82l36 -33z" />
    <glyph glyph-name="yacute" unicode="&#xfd;" horiz-adv-x="441" 
d="M149 172l-4 6l-162 217h75l124 -166l125 166h75l-162 -217l-5 -7l-2 -9v-162h-60v163zM202 454l-28 17l55 82l36 -33z" />
    <glyph glyph-name="Uacute" unicode="&#xda;" horiz-adv-x="403" 
d="M289 393h60v-241l-1 -18c-6 -76 -70 -136 -147 -136c-82 0 -148 66 -148 148v247h61v-259c6 -43 43 -76 87 -76c48 0 88 39 88 88v247zM184 454l-28 17l55 82l36 -33z" />
    <glyph glyph-name="Ugrave" unicode="&#xd9;" horiz-adv-x="403" 
d="M289 393h60v-241l-1 -18c-6 -76 -70 -136 -147 -136c-82 0 -148 66 -148 148v247h61v-259c6 -43 43 -76 87 -76c48 0 88 39 88 88v247zM219 461l-63 66l36 33l54 -82z" />
    <glyph glyph-name="ae" unicode="&#xe6;" horiz-adv-x="631" 
d="M602 337h-214v-100h190v-60h-190v-118h214v-60h-274v32l-27 61h-194l-40 -91h-65l170 393h65l91 -210v213h274v-60zM133 152h143l-71 167z" />
    <glyph glyph-name="AE" unicode="&#xc6;" horiz-adv-x="631" 
d="M602 337h-214v-100h190v-60h-190v-118h214v-60h-274v32l-27 61h-194l-40 -91h-65l170 393h65l91 -210v213h274v-60zM133 152h143l-71 167z" />
    <glyph glyph-name="Oslash" unicode="&#xd8;" horiz-adv-x="434" 
d="M166 3l-14 -32h-70l25 57c-13 9 -23 18 -34 30c-35 38 -54 87 -54 141c0 53 19 102 54 141c36 37 85 58 136 58c20 0 39 -4 58 -10l15 35h70l-29 -65c8 -5 14 -12 21 -18c36 -39 56 -88 56 -141c0 -54 -20 -103 -56 -141c-36 -39 -84 -60 -135 -60c-15 0 -29 2 -43 5z
M209 338c-72 0 -130 -62 -130 -139c0 -47 21 -88 53 -114l110 249c-10 3 -22 4 -33 4zM209 58c72 0 131 63 131 141c0 40 -17 76 -42 102l-107 -241c6 -1 12 -2 18 -2z" />
    <glyph glyph-name="agrave" unicode="&#xe0;" 
d="M350 132l56 -131h-65l-40 91h-194l-40 -91h-65l170 393v0h65v0l104 -242zM133 152h143l-71 167zM224 461l-63 66l36 33l54 -82z" />
    <glyph glyph-name="edieresis" unicode="&#xeb;" horiz-adv-x="371" 
d="M322 337h-215v-100h191v-60h-191v-118h215v-60h-275v0v60v118v60v100v60h60h215v-60zM171 487c0 -14 -12 -25 -26 -25s-25 11 -25 25c0 15 11 26 25 26s26 -11 26 -26zM251 487c0 -14 -12 -25 -25 -25c-15 0 -26 11 -26 25s11 25 26 25c13 0 25 -11 25 -25z" />
    <glyph glyph-name="oacute" unicode="&#xf3;" horiz-adv-x="434" 
d="M212 -2c51 0 99 21 135 60c36 38 56 87 56 141c0 53 -20 102 -56 141c-36 37 -84 58 -135 58s-100 -21 -136 -58c-35 -39 -54 -88 -54 -141c0 -54 19 -103 54 -141c36 -39 85 -60 136 -60zM212 338c72 0 131 -62 131 -139c0 -78 -59 -141 -131 -141s-130 63 -130 141
c0 77 58 139 130 139zM199 454l-28 17l55 82l36 -33z" />
    <glyph glyph-name="ograve" unicode="&#xf2;" horiz-adv-x="434" 
d="M212 -2c-51 0 -100 21 -136 60c-35 38 -54 87 -54 141c0 53 19 102 54 141c36 37 85 58 136 58s99 -21 135 -58c36 -39 56 -88 56 -141c0 -54 -20 -103 -56 -141c-36 -39 -84 -60 -135 -60zM212 338c-72 0 -130 -62 -130 -139c0 -78 58 -141 130 -141s131 63 131 141
c0 77 -59 139 -131 139zM233 461l-63 66l36 33l54 -82z" />
    <glyph glyph-name="idieresis" unicode="&#xef;" horiz-adv-x="172" 
d="M116 -2h-60v398h60v-398zM72 487c0 -14 -12 -25 -26 -25s-25 11 -25 25c0 15 11 26 25 26s26 -11 26 -26zM152 487c0 -14 -12 -25 -25 -25c-15 0 -26 11 -26 25s11 25 26 25c13 0 25 -11 25 -25z" />
    <glyph glyph-name="igrave" unicode="&#xec;" horiz-adv-x="172" 
d="M116 -2h-60v398h60v-398zM104 461l-63 66l36 33l54 -82z" />
    <glyph glyph-name="ugrave" unicode="&#xf9;" horiz-adv-x="403" 
d="M289 393h60v-241l-1 -18c-6 -76 -70 -136 -147 -136c-82 0 -148 66 -148 148v247h61v-259c6 -43 43 -76 87 -76c48 0 88 39 88 88v247zM219 461l-63 66l36 33l54 -82z" />
    <glyph glyph-name="uacute" unicode="&#xfa;" horiz-adv-x="403" 
d="M289 393h60v-241l-1 -18c-6 -76 -70 -136 -147 -136c-82 0 -148 66 -148 148v247h61v-259c6 -43 43 -76 87 -76c48 0 88 39 88 88v247zM184 454l-28 17l55 82l36 -33z" />
    <glyph glyph-name="udieresis" unicode="&#xfc;" horiz-adv-x="403" 
d="M289 393h60v-241l-1 -18c-6 -76 -70 -136 -147 -136c-82 0 -148 66 -148 148v247h61v-259c6 -43 43 -76 87 -76c48 0 88 39 88 88v247zM187 487c0 -14 -12 -25 -26 -25s-25 11 -25 25c0 15 11 26 25 26s26 -11 26 -26zM267 487c0 -14 -12 -25 -25 -25
c-15 0 -26 11 -26 25s11 25 26 25c13 0 25 -11 25 -25z" />
    <glyph glyph-name="circumflex" unicode="&#x2c6;" horiz-adv-x="291" 
d="M178 287l-54 54l-54 -54l-24 23l78 77l78 -77z" />
    <glyph glyph-name="Acircumflex" unicode="&#xc2;" 
d="M350 132l56 -131h-65l-40 91h-194l-40 -91h-65l170 393v0h65v0l104 -242zM133 152h143l-71 167zM260 437l-54 54l-54 -54l-24 23l78 77l78 -77z" />
    <glyph glyph-name="Ecircumflex" unicode="&#xca;" horiz-adv-x="371" 
d="M322 337h-215v-100h191v-60h-191v-118h215v-60h-275v0v60v118v60v100v60h60h215v-60zM239 437l-54 54l-54 -54l-24 23l78 77l78 -77z" />
    <glyph glyph-name="Icircumflex" unicode="&#xce;" horiz-adv-x="172" 
d="M116 -2v398h-60v-398h60zM140 437l-54 54l-54 -54l-24 23l78 77l78 -77z" />
    <glyph glyph-name="Ocircumflex" unicode="&#xd4;" horiz-adv-x="429" 
d="M212 -2c51 0 99 21 135 60c36 38 56 87 56 141c0 53 -20 102 -56 141c-36 37 -84 58 -135 58s-100 -21 -136 -58c-35 -39 -54 -88 -54 -141c0 -54 19 -103 54 -141c36 -39 85 -60 136 -60zM212 338c72 0 131 -62 131 -139c0 -78 -59 -141 -131 -141s-130 63 -130 141
c0 77 58 139 130 139zM268 437l-54 54l-54 -54l-24 23l78 77l78 -77z" />
    <glyph glyph-name="ocircumflex" unicode="&#xf4;" horiz-adv-x="429" 
d="M212 -2c51 0 99 21 135 60c36 38 56 87 56 141c0 53 -20 102 -56 141c-36 37 -84 58 -135 58s-100 -21 -136 -58c-35 -39 -54 -88 -54 -141c0 -54 19 -103 54 -141c36 -39 85 -60 136 -60zM212 338c72 0 131 -62 131 -139c0 -78 -59 -141 -131 -141s-130 63 -130 141
c0 77 58 139 130 139zM268 437l-54 54l-54 -54l-24 23l78 77l78 -77z" />
    <glyph glyph-name="ecircumflex" unicode="&#xea;" horiz-adv-x="371" 
d="M322 337h-215v-100h191v-60h-191v-118h215v-60h-275v0v60v118v60v100v60h60h215v-60zM239 437l-54 54l-54 -54l-24 23l78 77l78 -77z" />
    <glyph glyph-name="egrave" unicode="&#xe8;" horiz-adv-x="371" 
d="M322 337h-215v-100h191v-60h-191v-118h215v-60h-275v0v60v118v60v100v60h60h215v-60zM203 461l-63 66l36 33l54 -82z" />
    <glyph glyph-name="eacute" unicode="&#xe9;" horiz-adv-x="371" 
d="M322 337h-215v-100h191v-60h-191v-118h215v-60h-275v0v60v118v60v100v60h60h215v-60zM168 454l-28 17l55 82l36 -33z" />
    <glyph glyph-name="iacute" unicode="&#xed;" horiz-adv-x="172" 
d="M116 -2v398h-60v-398h60zM68 454l-28 17l55 82l36 -33z" />
    <glyph glyph-name="icircumflex" unicode="&#xee;" horiz-adv-x="172" 
d="M116 -2v398h-60v-398h60zM140 437l-54 54l-54 -54l-24 23l78 77l78 -77z" />
    <glyph glyph-name="acircumflex" unicode="&#xe2;" 
d="M350 132l56 -131h-65l-40 91h-194l-40 -91h-65l170 393v0h65v0l104 -242zM133 152h143l-71 167zM260 437l-54 54l-54 -54l-24 23l78 77l78 -77z" />
    <glyph glyph-name="aacute" unicode="&#xe1;" 
d="M350 132l56 -131h-65l-40 91h-194l-40 -91h-65l170 393v0h65v0l104 -242zM133 152h143l-71 167zM188 454l-28 17l55 82l36 -33z" />
    <glyph glyph-name="Ucircumflex" unicode="&#xdb;" horiz-adv-x="403" 
d="M289 393h60v-241l-1 -18c-6 -76 -70 -136 -147 -136c-82 0 -148 66 -148 148v247h61v-259c6 -43 43 -76 87 -76c48 0 88 39 88 88v247zM255 437l-54 54l-54 -54l-24 23l78 77l78 -77z" />
    <glyph glyph-name="ucircumflex" unicode="&#xfb;" horiz-adv-x="403" 
d="M289 393h60v-241l-1 -18c-6 -76 -70 -136 -147 -136c-82 0 -148 66 -148 148v247h61v-259c6 -43 43 -76 87 -76c48 0 88 39 88 88v247zM255 437l-54 54l-54 -54l-24 23l78 77l78 -77z" />
    <glyph glyph-name="fi" unicode="&#xfb01;" horiz-adv-x="496" 
d="M313 337h-201v-100h157v-60h-157v-178h-60v0v60v118v60v100v60h60h201v-60zM439 -2v398h-60v-398h60z" />
    <glyph glyph-name="fl" unicode="&#xfb02;" horiz-adv-x="645" 
d="M313 337h-201v-100h157v-60h-157v-178h-60v0v60v118v60v100v60h60h201v-60zM426 59h180v-60h-230v0h-10v398h60v-338z" />
    <glyph glyph-name="ring" unicode="&#x2da;" horiz-adv-x="181" 
d="M88 314c-26 0 -47 20 -47 44s21 45 47 45c25 0 45 -21 45 -45s-20 -44 -45 -44zM88 378c-12 0 -22 -8 -22 -20c0 -11 10 -20 22 -20c11 0 21 9 21 20c0 12 -10 20 -21 20z" />
    <glyph glyph-name="Aring" unicode="&#xc5;" 
d="M350 132l56 -131h-65l-40 91h-194l-40 -91h-65l170 393v0h65v0l104 -242zM133 152h143l-71 167zM206 464c-26 0 -47 20 -47 44s21 45 47 45c25 0 45 -21 45 -45s-20 -44 -45 -44zM206 528c-12 0 -22 -8 -22 -20c0 -11 10 -20 22 -20c11 0 21 9 21 20c0 12 -10 20 -21 20z
" />
    <glyph glyph-name="aring" unicode="&#xe5;" 
d="M350 132l56 -131h-65l-40 91h-194l-40 -91h-65l170 393v0h65v0l104 -242zM133 152h143l-71 167zM206 464c-26 0 -47 20 -47 44s21 45 47 45c25 0 45 -21 45 -45s-20 -44 -45 -44zM206 528c-12 0 -22 -8 -22 -20c0 -11 10 -20 22 -20c11 0 21 9 21 20c0 12 -10 20 -21 20z
" />
    <glyph glyph-name="odieresis" unicode="&#xf6;" horiz-adv-x="434" 
d="M212 -2c-51 0 -100 21 -136 60c-35 38 -54 87 -54 141c0 53 19 102 54 141c36 37 85 58 136 58s99 -21 135 -58c36 -39 56 -88 56 -141c0 -54 -20 -103 -56 -141c-36 -39 -84 -60 -135 -60zM212 338c-72 0 -130 -62 -130 -139c0 -78 58 -141 130 -141s131 63 131 141
c0 77 -59 139 -131 139zM202 487c0 -14 -12 -25 -26 -25s-25 11 -25 25c0 15 11 26 25 26s26 -11 26 -26zM282 487c0 -14 -12 -25 -25 -25c-15 0 -26 11 -26 25s11 25 26 25c13 0 25 -11 25 -25z" />
    <glyph glyph-name="tilde" unicode="&#x2dc;" horiz-adv-x="220" 
d="M50 301l-19 23l10 10c7 5 14 12 25 16c10 2 23 2 36 -4c3 -1 7 -3 10 -5c20 -10 29 -13 42 0l10 11l22 -21l-11 -11c-12 -13 -27 -17 -43 -16c-13 1 -24 6 -33 11c-3 2 -6 3 -9 4c-4 2 -11 4 -15 2c-5 -1 -10 -6 -14 -10z" />
    <glyph glyph-name="Ntilde" unicode="&#xd1;" horiz-adv-x="423" 
d="M43 0v379v17h63l210 -299v299h60v-383v-10v-2h-65l-208 294v-295h-60zM153 451l-19 23l10 10c7 5 14 12 25 16c10 2 23 2 36 -4c3 -1 7 -3 10 -5c20 -10 29 -13 42 0l10 11l22 -21l-11 -11c-12 -13 -27 -17 -43 -16c-13 1 -24 6 -33 11c-3 2 -6 3 -9 4c-4 2 -11 4 -15 2
c-5 -1 -10 -6 -14 -10z" />
    <glyph glyph-name="ntilde" unicode="&#xf1;" horiz-adv-x="423" 
d="M43 0v379v17h63l210 -299v299h60v-383v-10v-2h-65l-208 294v-295h-60zM153 451l-19 23l10 10c7 5 14 12 25 16c10 2 23 2 36 -4c3 -1 7 -3 10 -5c20 -10 29 -13 42 0l10 11l22 -21l-11 -11c-12 -13 -27 -17 -43 -16c-13 1 -24 6 -33 11c-3 2 -6 3 -9 4c-4 2 -11 4 -15 2
c-5 -1 -10 -6 -14 -10z" />
    <glyph glyph-name="Atilde" unicode="&#xc3;" 
d="M350 132l56 -131h-65l-40 91h-194l-40 -91h-65l170 393v0h65v0l104 -242zM133 152h143l-71 167zM147 451l-19 23l10 10c7 5 14 12 25 16c10 2 23 2 36 -4c3 -1 7 -3 10 -5c20 -10 29 -13 42 0l10 11l22 -21l-11 -11c-12 -13 -27 -17 -43 -16c-13 1 -24 6 -33 11
c-3 2 -6 3 -9 4c-4 2 -11 4 -15 2c-5 -1 -10 -6 -14 -10z" />
    <glyph glyph-name="Otilde" unicode="&#xd5;" horiz-adv-x="429" 
d="M212 -2c-51 0 -100 21 -136 60c-35 38 -54 87 -54 141c0 53 19 102 54 141c36 37 85 58 136 58s99 -21 135 -58c36 -39 56 -88 56 -141c0 -54 -20 -103 -56 -141c-36 -39 -84 -60 -135 -60zM212 338c-72 0 -130 -62 -130 -139c0 -78 58 -141 130 -141s131 63 131 141
c0 77 -59 139 -131 139zM156 451l-19 23l10 10c7 5 14 12 25 16c10 2 23 2 36 -4c3 -1 7 -3 10 -5c20 -10 29 -13 42 0l10 11l22 -21l-11 -11c-12 -13 -27 -17 -43 -16c-13 1 -24 6 -33 11c-3 2 -6 3 -9 4c-4 2 -11 4 -15 2c-5 -1 -10 -6 -14 -10z" />
    <glyph glyph-name="atilde" unicode="&#xe3;" 
d="M350 132l56 -131h-65l-40 91h-194l-40 -91h-65l170 393v0h65v0l104 -242zM133 152h143l-71 167zM147 451l-19 23l10 10c7 5 14 12 25 16c10 2 23 2 36 -4c3 -1 7 -3 10 -5c20 -10 29 -13 42 0l10 11l22 -21l-11 -11c-12 -13 -27 -17 -43 -16c-13 1 -24 6 -33 11
c-3 2 -6 3 -9 4c-4 2 -11 4 -15 2c-5 -1 -10 -6 -14 -10z" />
    <glyph glyph-name="otilde" unicode="&#xf5;" horiz-adv-x="429" 
d="M212 -2c-51 0 -100 21 -136 60c-35 38 -54 87 -54 141c0 53 19 102 54 141c36 37 85 58 136 58s99 -21 135 -58c36 -39 56 -88 56 -141c0 -54 -20 -103 -56 -141c-36 -39 -84 -60 -135 -60zM212 338c-72 0 -130 -62 -130 -139c0 -78 58 -141 130 -141s131 63 131 141
c0 77 -59 139 -131 139zM156 451l-19 23l10 10c7 5 14 12 25 16c10 2 23 2 36 -4c3 -1 7 -3 10 -5c20 -10 29 -13 42 0l10 11l22 -21l-11 -11c-12 -13 -27 -17 -43 -16c-13 1 -24 6 -33 11c-3 2 -6 3 -9 4c-4 2 -11 4 -15 2c-5 -1 -10 -6 -14 -10z" />
    <glyph glyph-name="breve" unicode="&#x2d8;" horiz-adv-x="184" 
d="M121 502h36c0 -36 -30 -65 -66 -65c-35 0 -64 29 -64 65h35c0 -17 14 -30 29 -30c17 0 30 13 30 30z" />
    <glyph glyph-name="caron" unicode="&#x2c7;" horiz-adv-x="291" 
d="M178 387l24 -23l-78 -77l-78 77l24 23l54 -54z" />
    <glyph glyph-name="Scaron" unicode="&#x160;" horiz-adv-x="363" 
d="M184 -7c-55 0 -104 19 -145 56l-23 20l40 45l23 -20c30 -27 65 -41 105 -41c7 0 27 1 47 10c17 7 28 19 34 34c2 6 3 12 3 16c0 6 -2 11 -3 14c-9 17 -34 33 -72 45c-11 3 -22 7 -33 10c-28 8 -54 14 -75 28c-31 19 -50 50 -50 87c0 22 8 43 23 60c16 19 49 44 111 48
c28 0 54 -3 79 -13c18 -7 35 -18 50 -31l22 -19l-39 -45l-22 19c-16 17 -49 29 -86 29c-32 -2 -57 -11 -69 -26c-5 -6 -9 -14 -9 -21c0 -34 26 -43 80 -58c12 -3 24 -7 37 -11c55 -18 90 -43 107 -76c6 -13 9 -26 9 -41c0 -12 -3 -23 -6 -35c-12 -31 -34 -55 -66 -69
c-30 -13 -58 -15 -72 -15zM235 537l24 -23l-78 -77l-78 77l24 23l54 -54z" />
    <glyph glyph-name="scaron" unicode="&#x161;" horiz-adv-x="363" 
d="M184 -7c-55 0 -104 19 -145 56l-23 20l40 45l23 -20c30 -27 65 -41 105 -41c7 0 27 1 47 10c17 7 28 19 34 34c2 6 3 12 3 16c0 6 -2 11 -3 14c-9 17 -34 33 -72 45c-11 3 -22 7 -33 10c-28 8 -54 14 -75 28c-31 19 -50 50 -50 87c0 22 8 43 23 60c16 19 49 44 111 48
c28 0 54 -3 79 -13c18 -7 35 -18 50 -31l22 -19l-39 -45l-22 19c-16 17 -49 29 -86 29c-32 -2 -57 -11 -69 -26c-5 -6 -9 -14 -9 -21c0 -34 26 -43 80 -58c12 -3 24 -7 37 -11c55 -18 90 -43 107 -76c6 -13 9 -26 9 -41c0 -12 -3 -23 -6 -35c-12 -31 -34 -55 -66 -69
c-30 -13 -58 -15 -72 -15zM235 537l24 -23l-78 -77l-78 77l24 23l54 -54z" />
    <glyph glyph-name="Zcaron" unicode="&#x17d;" horiz-adv-x="427" 
d="M376 395v-73l-252 -264h252v-60h-309h-24h-4v4v0v53v0l1 2l2 1l266 279h-269v58h337zM267 537l24 -23l-78 -77l-78 77l24 23l54 -54z" />
    <glyph glyph-name="zcaron" unicode="&#x17e;" horiz-adv-x="427" 
d="M376 395v-73l-252 -264h252v-60h-309h-24h-4v4v0v53v0l1 2l2 1l266 279h-269v58h337zM267 537l24 -23l-78 -77l-78 77l24 23l54 -54z" />
    <glyph glyph-name="cedilla" unicode="&#xb8;" horiz-adv-x="192" 
d="M91 -93c-14 0 -27 4 -39 11l-21 13l27 42l21 -14c7 -4 20 -4 27 3c8 6 11 18 7 27l-10 22l46 19l10 -23c5 -14 7 -30 3 -45s-13 -29 -24 -39c-11 -9 -26 -15 -42 -16h-5z" />
    <glyph glyph-name="Ccedilla" unicode="&#xc7;" horiz-adv-x="386" 
d="M183 -93h-5c-14 0 -27 4 -39 11l-21 13l27 42l21 -14c7 -4 20 -4 27 3c8 6 11 18 7 27l-6 12c-47 3 -91 23 -124 58c-36 37 -55 86 -55 138c0 53 19 102 55 139s83 58 134 58c27 0 52 -6 77 -17c23 -11 44 -26 62 -46l19 -22l-44 -40l-20 22c-25 28 -58 43 -94 43
c-71 0 -129 -61 -129 -137c0 -75 58 -136 129 -136c36 0 69 15 94 43l20 22l44 -40l-19 -22c-18 -20 -39 -35 -62 -46c-12 -5 -23 -10 -35 -12c5 -14 7 -29 3 -44s-13 -29 -24 -39c-11 -9 -26 -15 -42 -16z" />
    <glyph glyph-name="ccedilla" unicode="&#xe7;" horiz-adv-x="386" 
d="M183 -93h-5c-14 0 -27 4 -39 11l-21 13l27 42l21 -14c7 -4 20 -4 27 3c8 6 11 18 7 27l-6 12c-47 3 -91 23 -124 58c-36 37 -55 86 -55 138c0 53 19 102 55 139s83 58 134 58c27 0 52 -6 77 -17c23 -11 44 -26 62 -46l19 -22l-44 -40l-20 22c-25 28 -58 43 -94 43
c-71 0 -129 -61 -129 -137c0 -75 58 -136 129 -136c36 0 69 15 94 43l20 22l44 -40l-19 -22c-18 -20 -39 -35 -62 -46c-12 -5 -23 -10 -35 -12c5 -14 7 -29 3 -44s-13 -29 -24 -39c-11 -9 -26 -15 -42 -16z" />
    <glyph glyph-name="dagger" unicode="&#x2020;" horiz-adv-x="112" 
d="M152 297v-60h-62v-235c0 -2 -2 -4 -5 -4h-58c-2 0 -5 2 -5 4v235h-62v60h62v96c0 2 3 4 5 4h58c3 0 5 -2 5 -4v-96h62z" />
    <glyph glyph-name="oslash" unicode="&#xf8;" horiz-adv-x="434" 
d="M166 3l-14 -32h-70l25 57c-13 9 -23 18 -34 30c-35 38 -54 87 -54 141c0 53 19 102 54 141c36 37 85 58 136 58c20 0 39 -4 58 -10l15 35h70l-29 -65c8 -5 14 -12 21 -18c36 -39 56 -88 56 -141c0 -54 -20 -103 -56 -141c-36 -39 -84 -60 -135 -60c-15 0 -29 2 -43 5z
M209 338c-72 0 -130 -62 -130 -139c0 -47 21 -88 53 -114l110 249c-10 3 -22 4 -33 4zM209 58c72 0 131 63 131 141c0 40 -17 76 -42 102l-107 -241c6 -1 12 -2 18 -2z" />
    <glyph glyph-name="germandbls" unicode="&#xdf;" horiz-adv-x="356" 
d="M103 -74h-60l-1 370c0 92 71 119 146 119c77 0 107 -53 107 -105c0 -33 -16 -65 -44 -87c38 -19 65 -53 65 -102c0 -66 -53 -109 -132 -109h-30v60h30c30 0 72 7 72 49c0 51 -61 62 -99 65l-3 60c2 -1 24 4 45 15c36 19 36 41 36 49c0 27 -16 48 -45 48
c-40 0 -84 -3 -88 -67z" />
    <glyph glyph-name="registered" unicode="&#xae;" horiz-adv-x="358" 
d="M200 168c0 0 -1 0 -1 -1l53 -62l-1 -1h-31l-45 54c-9 -2 -18 -4 -28 -4v-50h-25v164h23v0c39 0 59 -11 69 -21c10 -9 15 -22 15 -35c0 -17 -10 -33 -29 -44zM188 190c14 8 17 16 17 22c0 7 -3 12 -8 17c-10 9 -27 15 -50 14v-64c15 0 30 4 41 11zM175 334
c87 0 157 -70 157 -156c0 -87 -70 -158 -157 -158s-157 71 -157 158c0 86 70 156 157 156zM175 50c70 0 127 57 127 128c0 69 -57 126 -127 126s-127 -57 -127 -126c0 -71 57 -128 127 -128z" />
    <glyph glyph-name="copyright" unicode="&#xa9;" horiz-adv-x="343" 
d="M167 334c87 0 158 -70 158 -156c0 -87 -71 -158 -158 -158c-86 0 -157 71 -157 158c0 86 71 156 157 156zM167 50c71 0 128 57 128 128c0 69 -57 126 -128 126c-70 0 -127 -57 -127 -126c0 -71 57 -128 127 -128zM167 240c-32 0 -58 -28 -58 -62s26 -62 58 -62
c17 0 32 7 43 20l10 9l20 -18l-9 -10c-8 -8 -18 -16 -29 -20c-11 -6 -22 -9 -35 -9c-22 0 -44 10 -61 27c-16 17 -24 39 -24 63s8 46 24 63c17 17 39 27 61 27c13 0 24 -3 35 -8s21 -12 29 -21l9 -10l-20 -18l-10 10c-11 12 -26 19 -43 19z" />
    <glyph glyph-name="trademark" unicode="&#x2122;" horiz-adv-x="387" 
d="M161 310v-29h-53v-139h-29v139h-54v29h136zM322 310h30v-9v-159h-29v117l-40 -58l-2 -3l-1 -3l-9 -13l-5 -7l-5 7l-8 13l-3 3l-2 3l-40 58v-117h-28v168h28l58 -84z" />
    <glyph glyph-name="Eth" unicode="&#xd0;" horiz-adv-x="379" 
d="M355 227v-31c-6 -126 -100 -197 -243 -197h-66v170h-42v60h42v171h102c111 -3 197 -67 207 -173zM166 169h-60v-110h6c103 0 183 49 183 133v4c0 66 -34 145 -167 145l-22 -1v-111h60v-60z" />
    <glyph glyph-name="Lslash" unicode="&#x141;" horiz-adv-x="322" 
d="M103 59h180v-60h-240v156l-60 -23v60l60 23v182h60v-159l72 29v-60l-72 -29v-119z" />
    <glyph glyph-name="lslash" unicode="&#x142;" horiz-adv-x="322" 
d="M103 59h180v-60h-240v156l-60 -23v60l60 23v182h60v-159l72 29v-60l-72 -29v-119z" />
    <glyph glyph-name="eth" unicode="&#xf0;" horiz-adv-x="379" 
d="M355 227v-31c-6 -126 -100 -197 -243 -197h-66v170h-42v60h42v171h102c111 -3 197 -67 207 -173zM166 169h-60v-110h6c103 0 183 49 183 133v4c0 66 -34 145 -167 145l-22 -1v-111h60v-60z" />
    <glyph glyph-name="Thorn" unicode="&#xde;" horiz-adv-x="341" 
d="M269 309c26 -28 40 -64 40 -102c0 -80 -62 -146 -139 -146c-26 0 -51 8 -72 21v-84h-60v398h60v-65c22 13 47 21 72 21c38 0 72 -15 99 -43zM170 121c44 0 79 39 79 86c0 46 -35 85 -79 85c-22 0 -44 -11 -59 -29l-13 -16v-78l7 -11c15 -22 39 -37 65 -37z" />
    <glyph glyph-name="thorn" unicode="&#xfe;" horiz-adv-x="341" 
d="M269 309c26 -28 40 -64 40 -102c0 -80 -62 -146 -139 -146c-26 0 -51 8 -72 21v-84h-60v398h60v-65c22 13 47 21 72 21c38 0 72 -15 99 -43zM170 121c44 0 79 39 79 86c0 46 -35 85 -79 85c-22 0 -44 -11 -59 -29l-13 -16v-78l7 -11c15 -22 39 -37 65 -37z" />
    <glyph glyph-name="section" unicode="&#xa7;" horiz-adv-x="406" 
d="M359 216c11 -23 12 -50 3 -77c-3 -7 -6 -14 -10 -21c11 -23 12 -49 3 -76c-12 -31 -34 -55 -66 -69c-30 -13 -58 -14 -72 -14c-55 0 -104 18 -145 55l-23 20l40 45l23 -20c30 -27 66 -40 105 -40c11 0 66 2 81 43c6 15 3 25 0 30c-1 2 -3 4 -4 6l-14 14
c-13 9 -31 18 -54 25c-11 4 -22 7 -33 11c-27 7 -54 14 -75 27c-28 18 -45 43 -49 76c-2 23 4 46 17 65c-4 9 -8 21 -10 33c-3 25 5 50 22 71c17 19 50 44 113 48c27 1 54 -3 78 -14c18 -6 35 -17 49 -30l23 -19l-39 -45l-23 19c-16 15 -45 31 -85 29
c-33 -2 -57 -11 -69 -26c-7 -8 -10 -18 -9 -26c4 -30 25 -38 80 -53c12 -4 24 -7 37 -11c54 -18 90 -43 106 -76zM208 205c12 -3 24 -6 37 -11c25 -7 45 -17 62 -28c3 12 0 19 -2 24c-8 17 -34 33 -71 45c-11 3 -23 7 -34 10c-25 7 -49 14 -70 26c-2 -6 -2 -9 -1 -12
c4 -30 25 -39 79 -54z" />
    <glyph glyph-name="multiply" unicode="&#xd7;" horiz-adv-x="378" 
d="M298 134l-43 -42l-66 66l-67 -67l-43 43l68 67l-67 66l43 43l66 -67l66 67l43 -43l-66 -66z" />
    <glyph glyph-name="onehalf" unicode="&#xbd;" horiz-adv-x="634" 
d="M184 139h-40v261h40v-261zM153 -101h-47l285 483h47zM355 -82v18c0 2 0 56 50 92c4 3 10 6 15 9c26 17 52 34 55 58c0 5 0 11 -6 19c-7 7 -18 13 -34 13c-20 1 -33 -9 -41 -16l-13 -13l-26 26l12 12c12 11 36 28 71 27c32 -3 49 -15 59 -27c11 -12 17 -28 15 -45
c-5 -39 -43 -63 -71 -84c-6 -3 -10 -6 -15 -9c-14 -9 -25 -24 -30 -40c-1 -2 -2 -2 -2 -4h103h18v-36h-18h-124h-18z" />
    <glyph glyph-name="onequarter" unicode="&#xbc;" horiz-adv-x="634" 
d="M184 139h-40v261h40v-261zM153 -101h-47l285 483h47zM457 -35h59v-39h-59v-33h-39v33h-105l99 246h43l-85 -207h48v52h39v-52z" />
    <glyph glyph-name="threequarters" unicode="&#xbe;" horiz-adv-x="634" 
d="M184 139h-40v261h40v-261zM153 -101h-47l285 483h47zM419 -95c-16 0 -31 5 -46 12l-15 9l15 30l15 -9c12 -5 25 -7 39 -6c11 1 22 6 31 12c8 7 21 21 16 44c-2 10 -8 16 -14 19c-9 6 -22 7 -30 6c-11 -1 -18 -3 -18 -4l-45 -14l63 101h-70v34h133l-52 -83
c13 -1 25 -3 35 -9c16 -8 26 -23 31 -43c8 -29 -2 -58 -27 -78c-14 -11 -32 -18 -50 -19c-3 0 -8 -2 -11 -2z" />
    <glyph glyph-name="yen" unicode="&#xa5;" horiz-adv-x="441" 
d="M316 42h-60v-42h-60v42h-57v37h57v15h-57v38h57v31l-3 9l-5 6l-132 217h75l95 -166l94 166h75l-132 -217l-4 -7l-3 -9v-30h60v-38h-60v-15h60v-37z" />
    </font>
</defs>
</svg>
